# xmcd CD database file
#
# Track frame offsets:
#	182
#	14060
#	31720
#	51240
#	66045
#	86200
#	105105
#	121347
#	136557
#	152002
#	168982
#
# Disc length: 2489 seconds
#
# Revision: 2
# Processed by: cddbd v1.5.2PL0 Copyright (c) Steve Scherf et al.
# Submitted via: CDex 1.79
#
DISCID=8009b70b
DTITLE=Farmer's Daughter - Girls Will Be Girls
DYEAR=1993
DGENRE=Country
TTITLE0=Girls Will Be Girls
TTITLE1=I Wanna Hold You
TTITLE2=She Still Haunts You
TTITLE3=Crazy Ole Moon
TTITLE4=You Wish
TTITLE5=Borderline Angel
TTITLE6=Son Of A Preacher Man
TTITLE7=Family Love
TTITLE8=Fallin' Outta Love
TTITLE9=Callin' All You Cowboys
TTITLE10=I Need A Little Tenderness
EXTD=YEAR: 1993
EXTT0=
EXTT1=
EXTT2=
EXTT3=
EXTT4=
EXTT5=
EXTT6=
EXTT7=
EXTT8=
EXTT9=
EXTT10=
PLAYORDER=
